# xmcd
#
# Track frame offsets: 
#        150
#        10064
#        22484
#        34175
#        46445
#        59092
#        73075
#        86149
#        100867
#        112481
#        128637
#        140408
#        159127
#        172756
#        186895
#        199288
#        213149
#        226697
#        238721
#        249166
#
# Disc length: 3503 seconds
#
# Revision: 0
# Processed by: cddbd v1.5.2PL0 Copyright (c) Steve Scherf et al.
# Submitted via: ExactAudioCopyFreeDBPlugin 1.0
#
DISCID=180dad14
DTITLE=John Lee Hooker - John Lee Hooker Birth Of A Legend (Reborn and R
DTITLE=emastered) Disc 1
DYEAR=2011
DGENRE=Blues
TTITLE0=Dimples
TTITLE1=Crawlin' King Snake
TTITLE2=Boogie Chillun
TTITLE3=I'm In The Mood
TTITLE4=Hobo Blues
TTITLE5=Taxi Driver
TTITLE6=I'm So Excited
TTITLE7=Mercy Blues
TTITLE8=I Love You Honey
TTITLE9=Low Down Midnight Boogie
TTITLE10=Little Wheel
TTITLE11=Mean Mistreatin'
TTITLE12=Time Is Marching
TTITLE13=Salty May
TTITLE14=Trouble Blues
TTITLE15=I'm Gonna Kill That Woman (John Lee Hooker as Texas Slim)
TTITLE16=Too Much Boogie
TTITLE17=Everybody Rockin'
TTITLE18=I'm A Boogie Man
TTITLE19=Never Satisfied
EXTD=
EXTT0=
EXTT1=
EXTT2=
EXTT3=
EXTT4=
EXTT5=
EXTT6=
EXTT7=
EXTT8=
EXTT9=
EXTT10=
EXTT11=
EXTT12=
EXTT13=
EXTT14=
EXTT15=
EXTT16=
EXTT17=
EXTT18=
EXTT19=
PLAYORDER=
